<mxfile host="app.diagrams.net" agent="Mozilla/5.0 (Windows NT 10.0; Win64; x64) AppleWebKit/537.36 (KHTML, like Gecko) Chrome/128.0.0.0 Safari/537.36" version="24.7.14" pages="2">
  <diagram name="Page-1" id="2EB9Hrwtxe6Q8MDA9293">
    <mxGraphModel dx="840" dy="814" grid="1" gridSize="10" guides="1" tooltips="1" connect="1" arrows="1" fold="1" page="1" pageScale="1" pageWidth="850" pageHeight="1100" math="0" shadow="0">
      <root>
        <mxCell id="0" />
        <mxCell id="1" parent="0" />
        <mxCell id="P08PUVYMIMv0Uni6x2Mr-1" value="" style="rounded=0;whiteSpace=wrap;html=1;" vertex="1" parent="1">
          <mxGeometry x="30" y="80" width="550" height="440" as="geometry" />
        </mxCell>
        <mxCell id="P08PUVYMIMv0Uni6x2Mr-2" value="" style="rounded=0;whiteSpace=wrap;html=1;" vertex="1" parent="1">
          <mxGeometry x="40" y="90" width="530" height="60" as="geometry" />
        </mxCell>
        <mxCell id="P08PUVYMIMv0Uni6x2Mr-3" value="" style="rounded=0;whiteSpace=wrap;html=1;" vertex="1" parent="1">
          <mxGeometry x="40" y="160" width="150" height="350" as="geometry" />
        </mxCell>
        <mxCell id="P08PUVYMIMv0Uni6x2Mr-4" value="" style="rounded=0;whiteSpace=wrap;html=1;" vertex="1" parent="1">
          <mxGeometry x="200" y="160" width="370" height="350" as="geometry" />
        </mxCell>
        <mxCell id="P08PUVYMIMv0Uni6x2Mr-5" value="" style="rounded=0;whiteSpace=wrap;html=1;" vertex="1" parent="1">
          <mxGeometry x="210" y="170" width="350" height="30" as="geometry" />
        </mxCell>
        <mxCell id="P08PUVYMIMv0Uni6x2Mr-6" value="" style="rounded=0;whiteSpace=wrap;html=1;" vertex="1" parent="1">
          <mxGeometry x="210" y="210" width="350" height="290" as="geometry" />
        </mxCell>
        <mxCell id="P08PUVYMIMv0Uni6x2Mr-7" value="" style="rounded=0;whiteSpace=wrap;html=1;" vertex="1" parent="1">
          <mxGeometry x="220" y="220" width="90" height="70" as="geometry" />
        </mxCell>
        <mxCell id="P08PUVYMIMv0Uni6x2Mr-8" value="" style="rounded=0;whiteSpace=wrap;html=1;" vertex="1" parent="1">
          <mxGeometry x="335" y="220" width="90" height="70" as="geometry" />
        </mxCell>
        <mxCell id="P08PUVYMIMv0Uni6x2Mr-9" value="" style="rounded=0;whiteSpace=wrap;html=1;" vertex="1" parent="1">
          <mxGeometry x="460" y="220" width="90" height="70" as="geometry" />
        </mxCell>
        <mxCell id="P08PUVYMIMv0Uni6x2Mr-10" value="" style="rounded=0;whiteSpace=wrap;html=1;" vertex="1" parent="1">
          <mxGeometry x="220" y="310" width="90" height="70" as="geometry" />
        </mxCell>
        <mxCell id="P08PUVYMIMv0Uni6x2Mr-11" value="" style="rounded=0;whiteSpace=wrap;html=1;" vertex="1" parent="1">
          <mxGeometry x="335" y="310" width="90" height="70" as="geometry" />
        </mxCell>
        <mxCell id="P08PUVYMIMv0Uni6x2Mr-12" value="" style="rounded=0;whiteSpace=wrap;html=1;" vertex="1" parent="1">
          <mxGeometry x="460" y="310" width="90" height="70" as="geometry" />
        </mxCell>
        <mxCell id="P08PUVYMIMv0Uni6x2Mr-13" value="" style="rounded=0;whiteSpace=wrap;html=1;" vertex="1" parent="1">
          <mxGeometry x="220" y="400" width="90" height="70" as="geometry" />
        </mxCell>
        <mxCell id="P08PUVYMIMv0Uni6x2Mr-14" value="" style="rounded=0;whiteSpace=wrap;html=1;" vertex="1" parent="1">
          <mxGeometry x="335" y="400" width="90" height="70" as="geometry" />
        </mxCell>
        <mxCell id="P08PUVYMIMv0Uni6x2Mr-15" value="" style="rounded=0;whiteSpace=wrap;html=1;" vertex="1" parent="1">
          <mxGeometry x="460" y="400" width="90" height="70" as="geometry" />
        </mxCell>
        <mxCell id="P08PUVYMIMv0Uni6x2Mr-16" value="&lt;font style=&quot;font-size: 14px;&quot;&gt;Layout for large screen (Laptops - 1440px )&lt;/font&gt;" style="text;html=1;align=center;verticalAlign=middle;whiteSpace=wrap;rounded=0;" vertex="1" parent="1">
          <mxGeometry x="140" y="40" width="310" height="30" as="geometry" />
        </mxCell>
      </root>
    </mxGraphModel>
  </diagram>
  <diagram id="OtdeGx0yhV1-M6aMif77" name="Page-2">
    <mxGraphModel dx="1585" dy="713" grid="1" gridSize="10" guides="1" tooltips="1" connect="1" arrows="1" fold="1" page="1" pageScale="1" pageWidth="850" pageHeight="1100" math="0" shadow="0">
      <root>
        <mxCell id="0" />
        <mxCell id="1" parent="0" />
        <mxCell id="uqW3kRKye6VXS3v4MNp5-1" value="&lt;font style=&quot;font-size: 14px;&quot;&gt;layout for medium screen&lt;/font&gt;" style="text;html=1;align=center;verticalAlign=middle;whiteSpace=wrap;rounded=0;" vertex="1" parent="1">
          <mxGeometry x="180" y="10" width="210" height="30" as="geometry" />
        </mxCell>
        <mxCell id="uqW3kRKye6VXS3v4MNp5-2" value="" style="rounded=0;whiteSpace=wrap;html=1;" vertex="1" parent="1">
          <mxGeometry x="30" y="50" width="550" height="430" as="geometry" />
        </mxCell>
        <mxCell id="uqW3kRKye6VXS3v4MNp5-3" value="" style="rounded=0;whiteSpace=wrap;html=1;" vertex="1" parent="1">
          <mxGeometry x="40" y="60" width="530" height="40" as="geometry" />
        </mxCell>
        <mxCell id="uqW3kRKye6VXS3v4MNp5-4" value="" style="rounded=0;whiteSpace=wrap;html=1;" vertex="1" parent="1">
          <mxGeometry x="40" y="110" width="60" height="360" as="geometry" />
        </mxCell>
        <mxCell id="uqW3kRKye6VXS3v4MNp5-5" value="" style="rounded=0;whiteSpace=wrap;html=1;" vertex="1" parent="1">
          <mxGeometry x="110" y="110" width="460" height="360" as="geometry" />
        </mxCell>
        <mxCell id="uqW3kRKye6VXS3v4MNp5-6" value="" style="rounded=0;whiteSpace=wrap;html=1;" vertex="1" parent="1">
          <mxGeometry x="120" y="120" width="440" height="40" as="geometry" />
        </mxCell>
        <mxCell id="uqW3kRKye6VXS3v4MNp5-11" value="" style="rounded=0;whiteSpace=wrap;html=1;" vertex="1" parent="1">
          <mxGeometry x="350" y="180" width="190" height="120" as="geometry" />
        </mxCell>
        <mxCell id="uqW3kRKye6VXS3v4MNp5-12" value="" style="rounded=0;whiteSpace=wrap;html=1;" vertex="1" parent="1">
          <mxGeometry x="130" y="180" width="190" height="120" as="geometry" />
        </mxCell>
        <mxCell id="uqW3kRKye6VXS3v4MNp5-13" value="" style="rounded=0;whiteSpace=wrap;html=1;" vertex="1" parent="1">
          <mxGeometry x="130" y="320" width="190" height="120" as="geometry" />
        </mxCell>
        <mxCell id="uqW3kRKye6VXS3v4MNp5-14" value="" style="rounded=0;whiteSpace=wrap;html=1;" vertex="1" parent="1">
          <mxGeometry x="350" y="320" width="190" height="120" as="geometry" />
        </mxCell>
        <mxCell id="uqW3kRKye6VXS3v4MNp5-15" value="" style="rounded=0;whiteSpace=wrap;html=1;fillColor=#d5e8d4;strokeColor=#82b366;" vertex="1" parent="1">
          <mxGeometry x="-120" y="50" width="140" height="430" as="geometry" />
        </mxCell>
        <mxCell id="uqW3kRKye6VXS3v4MNp5-16" value="" style="rounded=0;whiteSpace=wrap;html=1;fillColor=#dae8fc;strokeColor=#6c8ebf;" vertex="1" parent="1">
          <mxGeometry x="-110" y="60" width="120" height="40" as="geometry" />
        </mxCell>
        <mxCell id="uqW3kRKye6VXS3v4MNp5-17" value="" style="rounded=0;whiteSpace=wrap;html=1;fillColor=#dae8fc;strokeColor=#6c8ebf;" vertex="1" parent="1">
          <mxGeometry x="-110" y="110" width="120" height="360" as="geometry" />
        </mxCell>
        <mxCell id="e_51IH9qjZXelveiU-sn-6" value="" style="rounded=0;whiteSpace=wrap;html=1;" vertex="1" parent="1">
          <mxGeometry x="120" y="170" width="440" height="290" as="geometry" />
        </mxCell>
        <mxCell id="iMbpvUFonJvfPY5fRD_1-2" value="" style="rounded=0;whiteSpace=wrap;html=1;" vertex="1" parent="1">
          <mxGeometry x="140" y="330" width="190" height="120" as="geometry" />
        </mxCell>
        <mxCell id="iMbpvUFonJvfPY5fRD_1-5" value="" style="rounded=0;whiteSpace=wrap;html=1;" vertex="1" parent="1">
          <mxGeometry x="350" y="330" width="190" height="120" as="geometry" />
        </mxCell>
        <mxCell id="iMbpvUFonJvfPY5fRD_1-6" value="" style="rounded=0;whiteSpace=wrap;html=1;" vertex="1" parent="1">
          <mxGeometry x="140" y="190" width="190" height="120" as="geometry" />
        </mxCell>
        <mxCell id="iMbpvUFonJvfPY5fRD_1-7" value="" style="rounded=0;whiteSpace=wrap;html=1;" vertex="1" parent="1">
          <mxGeometry x="350" y="190" width="190" height="120" as="geometry" />
        </mxCell>
      </root>
    </mxGraphModel>
  </diagram>
</mxfile>
